<?xml version="1.0" encoding="UTF-8" standalone="no"?>
<!-- Created with Inkscape (http://www.inkscape.org/) -->

<svg
   width="264.58334mm"
   height="264.58334mm"
   viewBox="0 0 264.58334 264.58334"
   version="1.1"
   id="svg1"
   xml:space="preserve"
   xmlns="http://www.w3.org/2000/svg"
   xmlns:svg="http://www.w3.org/2000/svg"><defs
     id="defs1" /><g
     id="layer3"
     style="display:none"
     transform="translate(-519.19362)"><rect
       style="fill:#141414;fill-opacity:1;fill-rule:evenodd;stroke:none;stroke-width:5.29166"
       id="rect133"
       width="264.58334"
       height="264.58334"
       x="519.1936"
       y="0" /></g><g
     id="layer7"
     style="display:inline"
     transform="translate(-519.19362)"><g
       id="layer2"
       style="display:inline"
       transform="translate(405.18175,-2.5972233)"><rect
         style="fill:none;fill-rule:evenodd;stroke:#ffffff;stroke-width:2.54864;stroke-linecap:round;stroke-dasharray:none;stroke-opacity:1"
         id="rect1"
         width="116.59123"
         height="18.985367"
         x="208.07593"
         y="118.79741" /><path
         style="fill:none;fill-rule:evenodd;stroke:#ffffff;stroke-width:2.54864;stroke-linecap:butt;stroke-dasharray:none;stroke-opacity:1"
         d="m 314.99583,118.64712 c 0,0 10.27957,-4.17694 5.77695,-14.41043 -4.50261,-10.233504 -14.66234,-4.441084 -14.66234,-4.441084"
         id="path1" /><path
         style="fill:none;fill-rule:evenodd;stroke:#ffffff;stroke-width:2.54864;stroke-linecap:butt;stroke-dasharray:none;stroke-opacity:1"
         d="m 317.66474,99.959413 c 0,0 6.30719,-23.162271 -17.50234,-29.269747"
         id="path24" /><path
         style="fill:none;fill-rule:evenodd;stroke:#ffffff;stroke-width:2.54864;stroke-linecap:butt;stroke-dasharray:none;stroke-opacity:1"
         d="m 279.68462,82.73186 c 0,0 1.34615,11.074259 12.55875,11.842329 11.21256,0.76807 11.60036,-7.901954 11.60036,-7.901954"
         id="path26" /><path
         style="fill:none;fill-rule:evenodd;stroke:#ffffff;stroke-width:2.54864;stroke-linecap:butt;stroke-dasharray:none;stroke-opacity:1"
         d="m 263.87817,43.057921 c 0,0 8.89498,-8.573369 25.06681,3.982387 16.17181,12.555752 9.6965,14.969659 17.53367,17.534481 7.83715,2.564821 15.99761,9.434813 10.98431,21.511602"
         id="path27" /><path
         style="fill:none;fill-rule:evenodd;stroke:#ffffff;stroke-width:2.54864;stroke-linecap:butt;stroke-dasharray:none;stroke-opacity:1"
         d="m 273.51837,47.682246 c 0,0 -12.9227,-6.643771 -20.37102,-9.548633 -7.44831,-2.904863 -21.17015,-3.228357 -26.90947,7.673567"
         id="path28" /><path
         style="fill:none;fill-rule:evenodd;stroke:#ffffff;stroke-width:2.54864;stroke-linecap:butt;stroke-dasharray:none;stroke-opacity:1"
         d="m 229.02576,41.969577 c 0,0 -25.44285,-9.787108 -26.45451,15.410702"
         id="path29" /><path
         style="fill:none;fill-rule:evenodd;stroke:#ffffff;stroke-width:2.54864;stroke-linecap:butt;stroke-dasharray:none;stroke-opacity:1"
         d="m 205.12289,47.049233 c 0,0 -8.5934,13.206837 -16.9537,19.435195 -9.55678,7.119724 -17.83223,16.944903 -8.16586,29.409827"
         id="path30" /><path
         style="fill:none;fill-rule:evenodd;stroke:#ffffff;stroke-width:2.54864;stroke-linecap:butt;stroke-dasharray:none;stroke-opacity:1"
         d="m 213.59478,69.455308 c 0,0 -4.23388,19.400549 15.88849,15.419456"
         id="path31" /><path
         style="fill:none;fill-rule:evenodd;stroke:#ffffff;stroke-width:2.54864;stroke-linecap:butt;stroke-dasharray:none;stroke-opacity:1"
         d="m 235.65268,57.4314 c 0,0 2.1441,15.393912 16.66127,7.696956"
         id="path32" /><path
         style="fill:none;fill-rule:evenodd;stroke:#ffffff;stroke-width:2.54864;stroke-linecap:butt;stroke-dasharray:none;stroke-opacity:1"
         d="m 237.0903,103.55179 c 0,0 17.45775,9.99649 21.79965,-10.015963"
         id="path33" /><path
         style="fill:none;fill-rule:evenodd;stroke:#ffffff;stroke-width:2.54864;stroke-linecap:butt;stroke-dasharray:none;stroke-opacity:1"
         d="m 280.8235,56.837859 c 0.43836,0.417749 6.22424,6.162079 2.29959,11.719701"
         id="path34" /><path
         style="fill:none;fill-rule:evenodd;stroke:#ffffff;stroke-width:2.54864;stroke-linecap:butt;stroke-dasharray:none;stroke-opacity:1"
         d="m 192.42708,104.15313 c 0,0 -0.50302,13.5242 14.14006,14.49399"
         id="path35" /><path
         style="fill:none;fill-rule:evenodd;stroke:#ffffff;stroke-width:2.54864;stroke-linecap:butt;stroke-dasharray:none;stroke-opacity:1"
         d="m 182.7209,89.236163 c 0,0 -4.70766,10.120701 -10.70975,14.869587 -6.0021,4.74889 -5.82913,17.54616 3.66335,19.74777"
         id="path36" /><path
         style="fill:none;fill-rule:evenodd;stroke:#ffffff;stroke-width:2.64583;stroke-linecap:butt;stroke-dasharray:none;stroke-opacity:1"
         d="m 256.21761,144.88941 v 27.72277 a 2.16291,2.16291 20.073489 0 0 3.81622,1.39453 l 5.86973,-6.95893 a 8.8462139,8.8462139 110.07349 0 0 2.08423,-5.7036 l 0,-8.38794"
         id="path50"
         transform="matrix(0.96326577,0,0,0.96326577,-11.848416,-2.0480784)" /><path
         style="fill:none;fill-rule:evenodd;stroke:#ffffff;stroke-width:2.64583;stroke-linecap:butt;stroke-dasharray:none;stroke-opacity:1"
         d="m 189.5694,123.7011 c 0,0 -9.09318,16.90283 4.17669,23.66481 13.26986,6.76199 15.83142,7.82233 18.17219,16.75982 2.34078,8.9375 6.30304,6.28383 6.30304,6.28383 l 10.52278,-4.94875 2.46458,-12.55689"
         id="path37"
         transform="matrix(0.96326577,0,0,0.96326577,-5.2326018,-1.7842391)" /><path
         style="fill:none;fill-rule:evenodd;stroke:#ffffff;stroke-width:2.54864;stroke-linecap:butt;stroke-dasharray:none;stroke-opacity:1"
         d="m 275.79437,163.2131 c 0,0 6.38439,-2.77805 10.42088,0.0646"
         id="path40" /><path
         style="fill:none;fill-rule:evenodd;stroke:#ffffff;stroke-width:2.54864;stroke-linecap:butt;stroke-dasharray:none;stroke-opacity:1"
         d="m 287.42452,144.90079 c 0,0 2.16639,4.76948 6.06755,7.34332 8.38804,5.53409 3.68919,14.4342 -2.94312,14.83765"
         id="path41" /><path
         style="fill:none;fill-rule:evenodd;stroke:#ffffff;stroke-width:2.54864;stroke-linecap:butt;stroke-dasharray:none;stroke-opacity:1"
         d="m 305.47929,137.90118 c 0,0 -1.9568,0.71594 -0.78469,13.73449 1.5052,16.71805 -12.67301,29.53857 -13.67708,32.74283 -1.00402,3.20425 -4.68491,10.23324 -5.20901,15.09023 -0.52412,4.85699 -5.32744,16.75021 -32.70821,4.37245 -27.38078,-12.37776 -29.87953,-14.85388 -30.72022,-20.25582 -0.84067,-5.40193 -0.51923,-14.55357 -0.51923,-14.55357"
         id="path42" /><path
         style="fill:none;fill-rule:evenodd;stroke:#ffffff;stroke-width:2.54864;stroke-linecap:butt;stroke-dasharray:none;stroke-opacity:1"
         d="m 270.02916,174.79014 c 0,0 6.56163,-0.87213 9.30007,1.4652 2.73844,2.33732 5.07194,0.23598 6.34586,0.33508 1.27388,0.0991 3.81131,1.61256 3.81131,1.61256"
         id="path43" /><path
         style="fill:none;fill-rule:evenodd;stroke:#ffffff;stroke-width:2.54864;stroke-linecap:butt;stroke-dasharray:none;stroke-opacity:1"
         d="m 275.22931,184.13008 c 0,0 4.46612,3.23378 9.71433,0.58099"
         id="path44" /><path
         style="fill:none;fill-rule:evenodd;stroke:#ffffff;stroke-width:2.54864;stroke-linecap:butt;stroke-dasharray:none;stroke-opacity:1"
         d="m 204.97254,162.36546 c 0,0 -2.7213,33.32459 -5.14263,42.88788 -2.42133,9.56328 30.45464,25.47021 38.16188,26.81374 7.70725,1.34353 19.01805,3.11164 20.48341,-3.03227 1.46537,-6.14392 5.61051,-21.06148 5.61051,-21.06148"
         id="path45" /><path
         style="fill:none;fill-rule:evenodd;stroke:#ffffff;stroke-width:2.54864;stroke-linecap:butt;stroke-dasharray:none;stroke-opacity:1"
         d="m 192.92514,88.442504 c 0,0 10.19157,3.313644 12.01317,-6.447196"
         id="path46" /><path
         style="fill:none;fill-rule:evenodd;stroke:#ffffff;stroke-width:2.54864;stroke-linecap:butt;stroke-dasharray:none;stroke-opacity:1"
         d="m 210.07043,104.10575 c 0,0 3.05982,11.13089 15.03983,5.28846"
         id="path47" /><path
         style="fill:none;fill-rule:evenodd;stroke:#ffffff;stroke-width:2.54864;stroke-linecap:butt;stroke-dasharray:none;stroke-opacity:1"
         d="m 271.49617,110.64815 c 0,0 10.47421,5.26875 16.03816,-3.95572"
         id="path48" /><path
         style="fill:none;fill-rule:evenodd;stroke:#ffffff;stroke-width:2.54864;stroke-linecap:butt;stroke-dasharray:none;stroke-opacity:1"
         d="m 213.67764,144.3054 c 0,0 12.15487,9.56769 15.56004,-6.52263"
         id="path49" /><g
         id="g53"
         transform="matrix(0.89158781,0.364626,-0.364626,0.89158781,81.770007,-78.902521)"><path
           style="fill:none;fill-opacity:1;fill-rule:evenodd;stroke:#ffffff;stroke-width:2.64583;stroke-linecap:butt;stroke-dasharray:none;stroke-opacity:1"
           d="m 239.44094,211.45799 -6.68972,6.68972 6.33499,6.77272"
           id="path51" /><path
           style="fill:none;fill-opacity:1;fill-rule:evenodd;stroke:#ffffff;stroke-width:2.64583;stroke-linecap:butt;stroke-dasharray:none;stroke-opacity:1"
           d="m 251.27969,212.00376 6.68972,6.68972 -6.33499,6.77272"
           id="path52" /><path
           style="fill:none;fill-opacity:1;fill-rule:evenodd;stroke:#ffffff;stroke-width:2.64583;stroke-linecap:butt;stroke-dasharray:none;stroke-opacity:1"
           d="m 247.1592,210.73756 -4.27573,15.73206"
           id="path53" /></g><path
         style="fill:none;fill-rule:evenodd;stroke:#ffffff;stroke-width:2.54864;stroke-linecap:butt;stroke-dasharray:none;stroke-opacity:1"
         d="m 192.474,121.00342 c 0,0 -7.48125,8.79147 4.08846,15.40937"
         id="path54" /></g></g></svg>
